Coordinates
version=1
nRows=43
nColumns=12
inDegrees=yes

Units are S.I. units (second, meters, Newtons, ...)
Angles are in degrees

endheader
time	SC_y	SC_z	SC_x	AC_y	AC_z	AC_x	GH_y	GH_z	GH_yy	EL_x	PS_y
       0.0              -29.24          2.603          69.27          61.08         -8.325         -11.98          34.89          58.97          -60.4          115.0          44.66
   0.03958              -29.24          2.604          69.27          61.08         -8.326         -11.98           34.9          58.97         -60.36          115.0          44.67
   0.07917              -29.24          2.604          69.27          61.08         -8.328         -11.98          34.91          58.97         -60.33          115.0          44.68
    0.1187              -29.24          2.605          69.27          61.08         -8.329         -11.98          34.93          58.97         -60.29          115.0          44.69
    0.1583              -29.24          2.606          69.27          61.07         -8.331         -11.98          34.94          58.96         -60.25          115.0           44.7
    0.1979              -29.23          2.607          69.27          61.07         -8.333         -11.98          34.96          58.96         -60.21          115.0          44.71
    0.2375              -29.23          2.607          69.27          61.07         -8.335         -11.98          34.98          58.96         -60.16          115.0          44.72
    0.2771              -29.23          2.608          69.27          61.06         -8.337         -11.98           35.0          58.95         -60.11          115.0          44.73
    0.3167              -29.23          2.609          69.27          61.06         -8.339         -11.98          35.02          58.95         -60.06          115.0          44.74
    0.3562              -29.23           2.61          69.27          61.06         -8.341         -11.98          35.04          58.95          -60.0          115.0          44.75
    0.3958              -29.22          2.611          69.27          61.05         -8.344         -11.98          35.06          58.94         -59.94          115.0          44.77
    0.4354              -29.22          2.613          69.27          61.05         -8.346         -11.98          35.09          58.94         -59.88          115.0          44.78
     0.475              -29.22          2.614          69.27          61.04         -8.349         -11.97          35.12          58.93         -59.81          115.0           44.8
    0.5146              -29.21          2.615          69.27          61.04         -8.352         -11.97          35.15          58.93         -59.73          115.0          44.82
    0.5542              -29.21          2.617          69.27          61.03         -8.355         -11.97          35.18          58.92         -59.65          115.1          44.84
    0.5937              -29.21          2.618          69.28          61.02         -8.359         -11.97          35.21          58.92         -59.56          115.1          44.86
    0.6333               -29.2           2.62          69.28          61.02         -8.363         -11.97          35.25          58.91         -59.46          115.1          44.88
    0.6729               -29.2          2.622          69.28          61.01         -8.367         -11.97          35.29           58.9         -59.36          115.1          44.91
    0.7125              -29.19          2.624          69.28           61.0         -8.372         -11.97          35.34          58.89         -59.24          115.1          44.94
    0.7521              -29.19          2.627          69.28          60.99         -8.377         -11.97          35.39          58.89         -59.12          115.1          44.97
    0.7917              -29.18          2.629          69.28          60.98         -8.383         -11.97          35.44          58.88         -58.98          115.1           45.0
    0.8312              -29.18          2.632          69.28          60.97         -8.389         -11.96           35.5          58.87         -58.83          115.1          45.03
    0.8708              -29.17          2.635          69.28          60.96         -8.396         -11.96          35.57          58.85         -58.66          115.1          45.07
    0.9104              -29.16          2.638          69.28          60.95         -8.403         -11.96          35.64          58.84         -58.47          115.1          45.12
      0.95              -29.15          2.642          69.28          60.93         -8.411         -11.96          35.72          58.83         -58.26          115.1          45.17
    0.9896              -29.14          2.646          69.29          60.92         -8.421         -11.96          35.81          58.81         -58.03          115.1          45.22
     1.029              -29.13          2.651          69.29           60.9         -8.431         -11.95          35.91           58.8         -57.77          115.1          45.28
     1.069              -29.12          2.656          69.29          60.88         -8.443         -11.95          36.03          58.78         -57.48          115.1          45.35
     1.108               -29.1          2.662          69.29          60.85         -8.456         -11.95          36.16          58.75         -57.15          115.2          45.43
     1.148              -29.09          2.669          69.29          60.83         -8.472         -11.94           36.3          58.73         -56.78          115.2          45.52
     1.187              -29.07          2.677           69.3           60.8         -8.489         -11.94          36.47           58.7         -56.35          115.2          45.62
     1.227              -29.05          2.686           69.3          60.76         -8.509         -11.93          36.66          58.67         -55.86          115.2          45.74
     1.267              -29.02          2.696           69.3          60.72         -8.532         -11.92          36.88          58.63          -55.3          115.2          45.87
     1.306               -29.0          2.708          69.31          60.67         -8.558         -11.92          37.14          58.58         -54.64          115.3          46.03
     1.346              -28.96          2.722          69.31          60.62         -8.589         -11.91          37.44          58.53         -53.88          115.3          46.21
     1.385              -28.92          2.739          69.32          60.55         -8.626          -11.9           37.8          58.47         -52.97          115.3          46.43
     1.425              -28.88          2.759          69.33          60.48          -8.67         -11.89          38.22           58.4         -51.89          115.4          46.68
     1.465              -28.82          2.782          69.34          60.38         -8.722         -11.87          38.72          58.31          -50.6          115.4          46.99
     1.504              -28.76          2.811          69.35          60.27         -8.785         -11.86          39.34          58.21         -49.04          115.5          47.36
     1.544              -28.67          2.846          69.36          60.13         -8.862         -11.83          40.08          58.08         -47.14          115.6          47.82
     1.583              -28.57          2.889          69.38          59.97         -8.958         -11.81           41.0          57.92         -44.78          115.7          48.38
     1.623              -28.45          2.943           69.4          59.76         -9.076         -11.78          42.15          57.72         -41.85          115.8          49.07
     1.662              -28.29           3.01          69.42          59.49         -9.226         -11.73           43.6          57.47         -38.15          116.0          49.95
